<svg width="1284" height="222" viewBox="0 0 1284 222" fill="none" xmlns="http://www.w3.org/2000/svg">
<path d="M138.635 180.317C138.635 157.297 157.297 138.635 180.317 138.635C203.338 138.635 222 157.297 222 180.317C222 203.338 203.338 222 180.317 222C157.297 222 138.635 203.338 138.635 180.317Z" fill="url(#paint0_linear_45_46)"/>
<path d="M55.2698 111C55.2698 80.2209 80.2209 55.2698 111 55.2698C137.34 55.2698 159.412 73.5433 165.231 98.1048C166.887 105.095 172.554 111 179.738 111H208.992C216.176 111 222.08 105.15 221.249 98.0146C214.818 42.8295 167.911 0 111 0C49.6964 0 0 49.6964 0 111C0 167.911 42.8295 214.818 98.0146 221.249C105.15 222.08 111 216.176 111 208.992V179.738C111 172.554 105.095 166.887 98.1048 165.231C73.5433 159.412 55.2698 137.34 55.2698 111Z" fill="url(#paint1_linear_45_46)"/>
<path d="M377.6 66.4C363.067 66.4 352.533 70.4666 346 78.6C339.6 86.6 336.4 97.6 336.4 111.6C336.4 118.4 337.2 124.6 338.8 130.2C340.4 135.667 342.8 140.4 346 144.4C349.2 148.4 353.2 151.533 358 153.8C362.8 155.933 368.4 157 374.8 157C378.267 157 381.2 156.933 383.6 156.8C386.133 156.667 388.333 156.4 390.2 156V107.8H421.4V176.4C417.667 177.867 411.667 179.4 403.4 181C395.133 182.733 384.933 183.6 372.8 183.6C362.4 183.6 352.933 182 344.4 178.8C336 175.6 328.8 170.933 322.8 164.8C316.8 158.667 312.133 151.133 308.8 142.2C305.6 133.267 304 123.067 304 111.6C304 100 305.8 89.7333 309.4 80.8C313 71.8666 317.933 64.3333 324.2 58.2C330.467 51.9333 337.8 47.2 346.2 43.9999C354.733 40.8 363.8 39.2 373.4 39.2C379.933 39.2 385.8 39.6666 391 40.6C396.333 41.4 400.867 42.4 404.6 43.6C408.467 44.6666 411.6 45.8 414 47C416.533 48.2 418.333 49.1333 419.4 49.8L410.4 74.8C406.133 72.5333 401.2 70.6 395.6 69C390.133 67.2666 384.133 66.4 377.6 66.4Z" fill="white"/>
<path d="M511.83 102.2C509.163 101.533 506.03 100.867 502.43 100.2C498.83 99.4 494.963 99 490.83 99C488.963 99 486.696 99.2 484.03 99.6C481.496 99.8666 479.563 100.2 478.23 100.6V181H448.43V81.4C453.763 79.5333 460.03 77.8 467.23 76.2C474.563 74.4666 482.696 73.6 491.63 73.6C493.23 73.6 495.163 73.7333 497.43 74C499.696 74.1333 501.963 74.4 504.23 74.8C506.496 75.0666 508.763 75.4666 511.03 76C513.296 76.4 515.23 76.9333 516.83 77.6L511.83 102.2Z" fill="white"/>
<path d="M629.252 128.2C629.252 136.467 628.052 144.067 625.652 151C623.252 157.8 619.785 163.667 615.252 168.6C610.718 173.4 605.252 177.133 598.852 179.8C592.585 182.467 585.518 183.8 577.652 183.8C569.918 183.8 562.852 182.467 556.452 179.8C550.185 177.133 544.785 173.4 540.252 168.6C535.718 163.667 532.185 157.8 529.652 151C527.118 144.067 525.852 136.467 525.852 128.2C525.852 119.933 527.118 112.4 529.652 105.6C532.318 98.8 535.918 93 540.452 88.2C545.118 83.4 550.585 79.6666 556.852 77C563.252 74.3333 570.185 73 577.652 73C585.252 73 592.185 74.3333 598.452 77C604.852 79.6666 610.318 83.4 614.852 88.2C619.385 93 622.918 98.8 625.452 105.6C627.985 112.4 629.252 119.933 629.252 128.2ZM598.852 128.2C598.852 119 596.985 111.8 593.252 106.6C589.652 101.267 584.452 98.6 577.652 98.6C570.852 98.6 565.585 101.267 561.852 106.6C558.118 111.8 556.252 119 556.252 128.2C556.252 137.4 558.118 144.733 561.852 150.2C565.585 155.533 570.852 158.2 577.652 158.2C584.452 158.2 589.652 155.533 593.252 150.2C596.985 144.733 598.852 137.4 598.852 128.2Z" fill="white"/>
<path d="M651.336 49.6L681.136 44.8V75.8H716.936V100.6H681.136V137.6C681.136 143.867 682.203 148.867 684.336 152.6C686.603 156.333 691.069 158.2 697.736 158.2C700.936 158.2 704.203 157.933 707.536 157.4C711.003 156.733 714.136 155.867 716.936 154.8L721.136 178C717.536 179.467 713.536 180.733 709.136 181.8C704.736 182.867 699.336 183.4 692.936 183.4C684.803 183.4 678.069 182.333 672.736 180.2C667.403 177.933 663.136 174.867 659.936 171C656.736 167 654.469 162.2 653.136 156.6C651.936 151 651.336 144.8 651.336 138V49.6Z" fill="white"/>
<path d="M732.297 129.2C732.297 119.867 733.697 111.733 736.497 104.8C739.43 97.7333 743.23 91.8666 747.897 87.2C752.564 82.5333 757.897 79 763.897 76.6C770.03 74.2 776.297 73 782.697 73C797.63 73 809.43 77.6 818.097 86.8C826.764 95.8666 831.097 109.267 831.097 127C831.097 128.733 831.03 130.667 830.897 132.8C830.764 134.8 830.63 136.6 830.497 138.2H762.897C763.564 144.333 766.43 149.2 771.497 152.8C776.564 156.4 783.364 158.2 791.897 158.2C797.364 158.2 802.697 157.733 807.897 156.8C813.23 155.733 817.564 154.467 820.897 153L824.897 177.2C823.297 178 821.164 178.8 818.497 179.6C815.83 180.4 812.83 181.067 809.497 181.6C806.297 182.267 802.83 182.8 799.097 183.2C795.364 183.6 791.63 183.8 787.897 183.8C778.43 183.8 770.164 182.4 763.097 179.6C756.164 176.8 750.364 173 745.697 168.2C741.164 163.267 737.764 157.467 735.497 150.8C733.364 144.133 732.297 136.933 732.297 129.2ZM802.297 117.8C802.164 115.267 801.697 112.8 800.897 110.4C800.23 108 799.097 105.867 797.497 104C796.03 102.133 794.097 100.6 791.697 99.4C789.43 98.2 786.564 97.6 783.097 97.6C779.764 97.6 776.897 98.2 774.497 99.4C772.097 100.467 770.097 101.933 768.497 103.8C766.897 105.667 765.63 107.867 764.697 110.4C763.897 112.8 763.297 115.267 762.897 117.8H802.297Z" fill="white"/>
<path d="M884.294 159.6C889.76 159.6 893.627 159.067 895.894 158C898.16 156.933 899.294 154.867 899.294 151.8C899.294 149.4 897.827 147.333 894.894 145.6C891.96 143.733 887.494 141.667 881.494 139.4C876.827 137.667 872.56 135.867 868.694 134C864.96 132.133 861.76 129.933 859.094 127.4C856.427 124.733 854.36 121.6 852.894 118C851.427 114.4 850.694 110.067 850.694 105C850.694 95.1333 854.36 87.3333 861.694 81.6C869.027 75.8666 879.094 73 891.894 73C898.294 73 904.427 73.6 910.294 74.8C916.16 75.8666 920.827 77.0666 924.294 78.4L919.094 101.6C915.627 100.4 911.827 99.3333 907.694 98.4C903.694 97.4666 899.16 97 894.094 97C884.76 97 880.094 99.6 880.094 104.8C880.094 106 880.294 107.067 880.694 108C881.094 108.933 881.894 109.867 883.094 110.8C884.294 111.6 885.894 112.533 887.894 113.6C890.027 114.533 892.694 115.6 895.894 116.8C902.427 119.2 907.827 121.6 912.094 124C916.36 126.267 919.694 128.8 922.094 131.6C924.627 134.267 926.36 137.267 927.294 140.6C928.36 143.933 928.894 147.8 928.894 152.2C928.894 162.6 924.96 170.467 917.094 175.8C909.36 181.133 898.36 183.8 884.094 183.8C874.76 183.8 866.96 183 860.694 181.4C854.56 179.8 850.294 178.467 847.894 177.4L852.894 153.2C857.96 155.2 863.16 156.8 868.494 158C873.827 159.067 879.094 159.6 884.294 159.6Z" fill="white"/>
<path d="M976.564 129.2C976.564 148.267 983.631 157.8 997.764 157.8C1000.83 157.8 1003.83 157.4 1006.76 156.6C1009.83 155.8 1012.3 154.8 1014.16 153.6V99.8C1012.7 99.5333 1010.83 99.3333 1008.56 99.2C1006.3 98.9333 1003.83 98.8 1001.16 98.8C993.031 98.8 986.897 101.6 982.764 107.2C978.631 112.667 976.564 120 976.564 129.2ZM946.164 128.4C946.164 120.267 947.364 112.867 949.764 106.2C952.297 99.4 955.897 93.6 960.564 88.8C965.231 83.8666 970.964 80.0666 977.764 77.4C984.564 74.7333 992.297 73.4 1000.96 73.4C1004.56 73.4 1008.3 73.6 1012.16 74C1016.16 74.2666 1020.03 74.6666 1023.76 75.2C1027.63 75.7333 1031.3 76.4 1034.76 77.2C1038.23 77.8666 1041.3 78.6 1043.96 79.4V218H1014.16V178.4C1010.83 179.867 1007.36 181 1003.76 181.8C1000.16 182.6 996.297 183 992.164 183C977.231 183 965.831 178.133 957.964 168.4C950.097 158.533 946.164 145.2 946.164 128.4Z" fill="white"/>
<path d="M1161.67 177.4C1156.6 178.867 1150.07 180.2 1142.07 181.4C1134.07 182.733 1125.67 183.4 1116.87 183.4C1107.93 183.4 1100.47 182.2 1094.47 179.8C1088.6 177.4 1083.93 174.067 1080.47 169.8C1077 165.4 1074.53 160.2 1073.07 154.2C1071.6 148.2 1070.87 141.6 1070.87 134.4V75.8H1100.67V130.8C1100.67 140.4 1101.93 147.333 1104.47 151.6C1107 155.867 1111.73 158 1118.67 158C1120.8 158 1123.07 157.933 1125.47 157.8C1127.87 157.533 1130 157.267 1131.87 157V75.8H1161.67V177.4Z" fill="white"/>
<path d="M1184.64 129.2C1184.64 119.867 1186.04 111.733 1188.84 104.8C1191.77 97.7333 1195.57 91.8666 1200.24 87.2C1204.91 82.5333 1210.24 79 1216.24 76.6C1222.37 74.2 1228.64 73 1235.04 73C1249.97 73 1261.77 77.6 1270.44 86.8C1279.11 95.8666 1283.44 109.267 1283.44 127C1283.44 128.733 1283.37 130.667 1283.24 132.8C1283.11 134.8 1282.97 136.6 1282.84 138.2H1215.24C1215.91 144.333 1218.77 149.2 1223.84 152.8C1228.91 156.4 1235.71 158.2 1244.24 158.2C1249.71 158.2 1255.04 157.733 1260.24 156.8C1265.57 155.733 1269.91 154.467 1273.24 153L1277.24 177.2C1275.64 178 1273.51 178.8 1270.84 179.6C1268.17 180.4 1265.17 181.067 1261.84 181.6C1258.64 182.267 1255.17 182.8 1251.44 183.2C1247.71 183.6 1243.97 183.8 1240.24 183.8C1230.77 183.8 1222.51 182.4 1215.44 179.6C1208.51 176.8 1202.71 173 1198.04 168.2C1193.51 163.267 1190.11 157.467 1187.84 150.8C1185.71 144.133 1184.64 136.933 1184.64 129.2ZM1254.64 117.8C1254.51 115.267 1254.04 112.8 1253.24 110.4C1252.57 108 1251.44 105.867 1249.84 104C1248.37 102.133 1246.44 100.6 1244.04 99.4C1241.77 98.2 1238.91 97.6 1235.44 97.6C1232.11 97.6 1229.24 98.2 1226.84 99.4C1224.44 100.467 1222.44 101.933 1220.84 103.8C1219.24 105.667 1217.97 107.867 1217.04 110.4C1216.24 112.8 1215.64 115.267 1215.24 117.8H1254.64Z" fill="white"/>
<defs>
<linearGradient id="paint0_linear_45_46" x1="-0.108235" y1="0.0541842" x2="271.015" y2="422.083" gradientUnits="userSpaceOnUse">
<stop stop-color="#F0B151"/>
<stop offset="1" stop-color="#DB5E5E"/>
</linearGradient>
<linearGradient id="paint1_linear_45_46" x1="-0.108235" y1="0.0541842" x2="271.015" y2="422.083" gradientUnits="userSpaceOnUse">
<stop stop-color="#F0B151"/>
<stop offset="1" stop-color="#DB5E5E"/>
</linearGradient>
</defs>
</svg>
