<svg width="512" height="513" viewBox="0 0 512 513" fill="none" xmlns="http://www.w3.org/2000/svg">
<path d="M34.1333 298.667H42.6667V346.539C42.6572 350.467 43.7958 354.312 45.9425 357.602C48.0892 360.892 51.1504 363.483 54.7499 365.056C57.498 366.299 60.4804 366.939 63.4965 366.933C68.5727 366.921 73.4688 365.051 77.2608 361.677L148.309 298.667H321.143C317.292 303.787 313.463 308.708 309.658 313.429C302.604 322.16 293.684 329.199 283.552 334.028C273.42 338.857 262.334 341.353 251.11 341.333H237.363C235.605 336.359 232.352 332.05 228.051 328.995C223.749 325.94 218.609 324.289 213.333 324.267H162.133C155.344 324.267 148.832 326.964 144.031 331.765C139.23 336.566 136.533 343.077 136.533 349.867V486.4C136.533 493.19 139.23 499.701 144.031 504.502C148.832 509.303 155.344 512 162.133 512H213.333C218.609 511.978 223.749 510.327 228.051 507.272C232.352 504.217 235.605 499.908 237.363 494.933H256C276.798 494.058 297.569 497.228 317.158 504.269C330.227 509.526 344.204 512.153 358.289 512H463.846C471.392 512.099 478.712 509.422 484.414 504.48C490.117 499.537 493.806 492.672 494.78 485.188C495.514 477.853 493.528 470.504 489.199 464.538C493.08 462.193 496.37 458.989 498.817 455.172C501.264 451.355 502.802 447.027 503.313 442.522C504.048 435.187 502.061 427.837 497.732 421.871C501.613 419.526 504.904 416.322 507.351 412.505C509.798 408.688 511.336 404.36 511.846 399.855C512.266 395.69 511.81 391.484 510.508 387.506C509.206 383.528 507.086 379.866 504.286 376.755C503.885 376.32 503.433 375.902 503.04 375.467C503.467 375.049 503.893 374.613 504.286 374.178C507.087 371.066 509.207 367.403 510.509 363.423C511.811 359.444 512.266 355.236 511.846 351.07C510.87 343.588 507.181 336.725 501.479 331.784C495.776 326.843 488.458 324.168 480.913 324.267H389.018C395.11 311.083 401.28 296.474 406.895 283.204C410.044 275.738 413.013 268.698 415.684 262.622C417.525 258.471 418.364 253.946 418.132 249.412C417.901 244.877 416.606 240.461 414.353 236.52C412.099 232.578 408.95 229.222 405.159 226.722C401.369 224.223 397.044 222.65 392.533 222.131V34.1333C392.533 25.0806 388.937 16.3987 382.536 9.99742C376.135 3.59618 367.453 0 358.4 0H34.1333C25.0806 0 16.3987 3.59618 9.99742 9.99742C3.59618 16.3987 0 25.0806 0 34.1333V264.533C0 273.586 3.59618 282.268 9.99742 288.669C16.3987 295.07 25.0806 298.667 34.1333 298.667ZM221.867 486.4C221.867 488.663 220.968 490.834 219.367 492.434C217.767 494.034 215.597 494.933 213.333 494.933H162.133C159.87 494.933 157.7 494.034 156.099 492.434C154.499 490.834 153.6 488.663 153.6 486.4V349.867C153.6 347.604 154.499 345.433 156.099 343.833C157.7 342.232 159.87 341.333 162.133 341.333H213.333C215.597 341.333 217.767 342.232 219.367 343.833C220.968 345.433 221.867 347.604 221.867 349.867V486.4ZM400.051 255.778C397.355 261.914 394.359 269.022 391.168 276.557C383.829 293.922 375.509 313.609 367.829 328.986C367.179 330.287 366.872 331.733 366.938 333.186C367.004 334.639 367.44 336.052 368.205 337.289C368.971 338.526 370.039 339.547 371.31 340.255C372.581 340.963 374.012 341.334 375.467 341.333H480.913C484.233 341.206 487.485 342.297 490.055 344.402C492.625 346.507 494.336 349.48 494.865 352.759C495.058 354.546 494.872 356.354 494.32 358.064C493.768 359.775 492.862 361.35 491.661 362.687C490.46 364.024 488.991 365.093 487.35 365.825C485.708 366.556 483.931 366.934 482.133 366.933C479.87 366.933 477.7 367.832 476.099 369.433C474.499 371.033 473.6 373.203 473.6 375.467C473.6 377.73 474.499 379.9 476.099 381.501C477.7 383.101 479.87 384 482.133 384C483.932 383.996 485.711 384.371 487.355 385.1C489 385.83 490.471 386.898 491.675 388.234C492.879 389.571 493.787 391.146 494.341 392.857C494.895 394.568 495.083 396.377 494.891 398.165C494.363 401.451 492.649 404.43 490.073 406.537C487.497 408.644 484.238 409.734 480.913 409.6H473.6C471.337 409.6 469.166 410.499 467.566 412.099C465.966 413.7 465.067 415.87 465.067 418.133C465.067 420.397 465.966 422.567 467.566 424.167C469.166 425.768 471.337 426.667 473.6 426.667C475.399 426.662 477.178 427.037 478.822 427.767C480.466 428.496 481.938 429.564 483.142 430.901C484.345 432.237 485.254 433.812 485.808 435.524C486.362 437.235 486.549 439.044 486.357 440.832C485.83 444.118 484.116 447.096 481.54 449.204C478.964 451.311 475.705 452.401 472.38 452.267H465.067C462.803 452.267 460.633 453.166 459.033 454.766C457.432 456.366 456.533 458.537 456.533 460.8C456.533 463.063 457.432 465.234 459.033 466.834C460.633 468.434 462.803 469.333 465.067 469.333C466.865 469.329 468.645 469.704 470.289 470.434C471.933 471.163 473.405 472.231 474.608 473.567C475.812 474.904 476.721 476.479 477.275 478.19C477.829 479.902 478.016 481.71 477.824 483.499C477.296 486.785 475.582 489.763 473.007 491.87C470.431 493.978 467.172 495.067 463.846 494.933H358.289C346.445 495.086 334.686 492.902 323.686 488.508C302.03 480.595 279.039 476.981 256 477.867H238.933V358.4H251.136C264.907 358.421 278.508 355.353 290.937 349.422C303.366 343.491 314.306 334.849 322.953 324.13C343.073 298.655 361.745 272.069 378.88 244.497C380.503 241.932 383.036 240.075 385.97 239.299C388.905 238.523 392.025 238.885 394.704 240.312C397.383 241.739 399.423 244.125 400.417 246.994C401.41 249.862 401.283 253 400.06 255.778H400.051ZM17.0667 34.1333C17.0667 29.607 18.8648 25.266 22.0654 22.0654C25.266 18.8648 29.607 17.0667 34.1333 17.0667H358.4C362.926 17.0667 367.267 18.8648 370.468 22.0654C373.669 25.266 375.467 29.607 375.467 34.1333V225.28C370.996 227.611 367.213 231.07 364.493 235.315C352.99 253.338 342.98 268.322 333.594 281.6H145.067C142.979 281.604 140.965 282.369 139.401 283.75L65.9541 348.928C65.3911 349.425 64.6944 349.744 63.9508 349.848C63.2072 349.951 62.4497 349.833 61.7728 349.508C61.176 349.272 60.6632 348.864 60.2999 348.335C59.9366 347.806 59.7393 347.18 59.7333 346.539V290.133C59.7333 287.87 58.8343 285.7 57.234 284.099C55.6337 282.499 53.4632 281.6 51.2 281.6H34.1333C29.607 281.6 25.266 279.802 22.0654 276.601C18.8648 273.401 17.0667 269.06 17.0667 264.533V34.1333Z" fill="url(#paint0_linear_7_1406)"/>
<path d="M155.588 111.684L152.405 131.046C151.779 134.645 152.184 138.347 153.574 141.725C154.963 145.103 157.279 148.019 160.256 150.135C163.097 152.168 166.454 153.355 169.941 153.558C173.428 153.762 176.901 152.975 179.959 151.287L196.267 142.362L212.582 151.296C215.736 152.971 219.298 153.722 222.86 153.463C226.421 153.204 229.837 151.944 232.715 149.83C235.592 147.715 237.814 144.832 239.126 141.51C240.437 138.189 240.785 134.565 240.128 131.055L236.945 111.684L250.402 98.0309C252.937 95.4586 254.708 92.2328 255.517 88.7131C256.326 85.1934 256.142 81.5181 254.985 78.0971C253.904 74.76 251.917 71.7891 249.245 69.5166C246.573 67.2441 243.322 65.7595 239.855 65.2288L221.534 62.4469L213.265 45.0219C211.766 41.775 209.369 39.0253 206.356 37.098C203.344 35.1708 199.843 34.1465 196.267 34.1465C192.691 34.1465 189.189 35.1708 186.177 37.098C183.164 39.0253 180.767 41.775 179.268 45.0219L170.999 62.4469L152.678 65.2203C149.211 65.7545 145.961 67.2413 143.289 69.515C140.618 71.7887 138.63 74.7599 137.549 78.0971C136.392 81.5181 136.207 85.1934 137.016 88.7131C137.826 92.2328 139.596 95.4586 142.131 98.0309L155.588 111.684ZM153.762 83.5243C153.844 83.1747 154.025 82.8563 154.284 82.6078C154.543 82.3593 154.869 82.1915 155.221 82.1248L178.039 78.7115C179.421 78.5027 180.731 77.9577 181.852 77.1245C182.974 76.2913 183.874 75.1953 184.474 73.9328L194.714 52.4117C194.839 52.0934 195.058 51.8202 195.341 51.6278C195.624 51.4353 195.959 51.3324 196.301 51.3324C196.643 51.3324 196.977 51.4353 197.261 51.6278C197.544 51.8202 197.762 52.0934 197.888 52.4117L208.128 73.9328C208.727 75.1953 209.627 76.2913 210.749 77.1245C211.871 77.9577 213.18 78.5027 214.562 78.7115L237.38 82.1248C239.181 82.3979 239.42 84.9579 238.319 86.0757L221.807 102.827C220.864 103.785 220.161 104.952 219.755 106.233C219.348 107.514 219.25 108.873 219.469 110.199L223.36 133.871C223.582 135.245 222.404 137.19 220.8 136.363L200.388 125.184C199.129 124.507 197.722 124.153 196.292 124.153C194.863 124.153 193.455 124.507 192.196 125.184L171.793 136.346C170.172 137.242 169.045 135.228 169.233 133.862L173.124 110.199C173.343 108.873 173.245 107.514 172.839 106.233C172.432 104.952 171.729 103.785 170.786 102.827L154.283 86.0416C153.985 85.6944 153.782 85.277 153.69 84.8291C153.599 84.3811 153.624 83.9174 153.762 83.4816V83.5243Z" fill="url(#paint1_linear_7_1406)"/>
<path d="M53.1883 205.559L50.0053 224.93C49.3683 228.534 49.768 232.245 51.1578 235.63C52.5477 239.016 54.8705 241.937 57.856 244.053C60.6948 246.085 64.0507 247.273 67.5358 247.478C71.021 247.683 74.4931 246.898 77.5509 245.214L93.8667 236.237L110.191 245.18C113.345 246.85 116.907 247.597 120.466 247.334C124.025 247.072 127.439 245.811 130.314 243.697C133.19 241.582 135.41 238.7 136.722 235.38C138.033 232.061 138.382 228.439 137.728 224.93L134.545 205.559L148.002 191.906C150.54 189.336 152.313 186.11 153.123 182.59C153.932 179.069 153.746 175.393 152.585 171.972C151.506 168.636 149.52 165.665 146.85 163.393C144.179 161.12 140.929 159.635 137.463 159.104L119.134 156.322L110.874 138.897C109.376 135.648 106.978 132.896 103.965 130.967C100.952 129.038 97.4488 128.012 93.8709 128.012C90.2931 128.012 86.7901 129.038 83.7768 130.967C80.7635 132.896 78.366 135.648 76.8683 138.897L68.608 156.322L50.2784 159.095C46.8124 159.63 43.5632 161.117 40.8932 163.391C38.2231 165.665 36.2373 168.636 35.1573 171.972C33.9962 175.393 33.8099 179.069 34.6191 182.59C35.4284 186.11 37.2014 189.336 39.7397 191.906L53.1883 205.559ZM51.3536 177.399C51.4356 177.049 51.6181 176.729 51.8788 176.481C52.1395 176.232 52.4671 176.065 52.8213 176L75.6395 172.587C77.0212 172.378 78.3306 171.833 79.4524 171C80.5743 170.166 81.4744 169.07 82.0736 167.808L92.3136 146.287C92.4408 145.971 92.6595 145.701 92.9416 145.51C93.2236 145.32 93.5562 145.218 93.8965 145.218C94.2369 145.218 94.5694 145.32 94.8515 145.51C95.1335 145.701 95.3522 145.971 95.4795 146.287L105.719 167.808C106.319 169.07 107.219 170.166 108.341 171C109.462 171.833 110.772 172.378 112.154 172.587L134.972 176C136.781 176.273 137.011 178.833 135.91 179.951L119.407 196.702C118.463 197.659 117.758 198.826 117.35 200.107C116.942 201.388 116.843 202.748 117.06 204.075L120.951 227.746C121.182 229.12 119.996 231.066 118.443 230.238L98.0309 219.059C96.7695 218.385 95.3611 218.032 93.9306 218.032C92.5002 218.032 91.0918 218.385 89.8304 219.059L69.4357 230.221C67.8059 231.074 66.6795 229.111 66.8757 227.738L70.7755 204.075C70.9928 202.748 70.8936 201.388 70.4858 200.107C70.0779 198.826 69.3731 197.659 68.4288 196.702L51.8827 179.917C51.5818 179.572 51.375 179.155 51.2823 178.706C51.1896 178.258 51.2142 177.793 51.3536 177.357V177.399Z" fill="url(#paint2_linear_7_1406)"/>
<path d="M257.997 205.559L254.814 224.93C254.185 228.527 254.589 232.229 255.979 235.606C257.368 238.983 259.686 241.897 262.665 244.011C265.503 246.043 268.859 247.23 272.344 247.435C275.83 247.641 279.302 246.856 282.359 245.171L298.667 236.237L314.982 245.18C318.137 246.85 321.698 247.597 325.258 247.334C328.817 247.072 332.23 245.811 335.106 243.697C337.981 241.582 340.202 238.7 341.513 235.38C342.825 232.061 343.173 228.439 342.519 224.93L339.337 205.559L352.794 191.906C355.332 189.336 357.105 186.11 357.914 182.59C358.723 179.069 358.537 175.393 357.376 171.972C356.297 168.636 354.312 165.665 351.641 163.393C348.971 161.12 345.721 159.635 342.255 159.104L323.925 156.322L315.665 138.897C314.167 135.648 311.77 132.896 308.757 130.967C305.743 129.038 302.24 128.012 298.662 128.012C295.085 128.012 291.582 129.038 288.568 130.967C285.555 132.896 283.158 135.648 281.66 138.897L273.399 156.322L255.07 159.095C251.604 159.63 248.355 161.117 245.685 163.391C243.015 165.665 241.029 168.636 239.949 171.972C238.788 175.393 238.601 179.069 239.411 182.59C240.22 186.11 241.993 189.336 244.531 191.906L257.997 205.559ZM256.162 177.399C256.246 177.05 256.429 176.732 256.69 176.483C256.95 176.235 257.276 176.067 257.63 176L280.448 172.587C281.83 172.378 283.139 171.833 284.261 171C285.383 170.166 286.283 169.07 286.882 167.808L297.122 146.287C297.249 145.971 297.468 145.701 297.75 145.51C298.032 145.32 298.365 145.218 298.705 145.218C299.045 145.218 299.378 145.32 299.66 145.51C299.942 145.701 300.161 145.971 300.288 146.287L310.528 167.808C311.127 169.07 312.027 170.166 313.149 171C314.271 171.833 315.58 172.378 316.962 172.587L339.78 176C341.589 176.273 341.82 178.833 340.719 179.951L324.215 196.702C323.271 197.659 322.566 198.826 322.159 200.107C321.751 201.388 321.651 202.748 321.869 204.075L325.769 227.746C325.99 229.12 324.804 231.066 323.209 230.238L302.797 219.059C301.535 218.385 300.127 218.032 298.697 218.032C297.266 218.032 295.858 218.385 294.596 219.059L274.202 230.221C272.58 231.074 271.445 229.111 271.642 227.738L275.533 204.075C275.75 202.748 275.651 201.388 275.243 200.107C274.835 198.826 274.13 197.659 273.186 196.702L256.683 179.951C256.38 179.6 256.172 179.177 256.081 178.722C255.99 178.268 256.018 177.797 256.162 177.357V177.399Z" fill="url(#paint3_linear_7_1406)"/>
<defs>
<linearGradient id="paint0_linear_7_1406" x1="386.132" y1="395.205" x2="147.194" y2="82.6715" gradientUnits="userSpaceOnUse">
<stop stop-color="#B41F3E"/>
<stop offset="1" stop-color="#711972"/>
</linearGradient>
<linearGradient id="paint1_linear_7_1406" x1="386.132" y1="395.205" x2="147.194" y2="82.6715" gradientUnits="userSpaceOnUse">
<stop stop-color="#B41F3E"/>
<stop offset="1" stop-color="#711972"/>
</linearGradient>
<linearGradient id="paint2_linear_7_1406" x1="386.132" y1="395.205" x2="147.194" y2="82.6715" gradientUnits="userSpaceOnUse">
<stop stop-color="#B41F3E"/>
<stop offset="1" stop-color="#711972"/>
</linearGradient>
<linearGradient id="paint3_linear_7_1406" x1="386.132" y1="395.205" x2="147.194" y2="82.6715" gradientUnits="userSpaceOnUse">
<stop stop-color="#B41F3E"/>
<stop offset="1" stop-color="#711972"/>
</linearGradient>
</defs>
</svg>
